name rise49.5252peak65.1548fall88.8305.mot
datacolumns 19
datarows 35
range 5.94830700000000 6.00497500000000
endheader
time	ground_force1_vx	ground_force1_vy	ground_force1_vz	ground_force1_px	ground_force1_py	ground_force1_pz	ground_force2_vx	ground_force2_vy	ground_force2_vz	ground_force2_px	ground_force2_py	ground_force2_pz	ground_torque1_x	ground_torque1_y	ground_torque1_z	ground_torque2_x	ground_torque2_y	ground_torque2_z	
5.94830700000000	-44.84407200000000	804.87739999999997	55.84538100000000	0.16679900000000	0.00000000000000	0.11281500000000	-8.69297100000000	48.69742900000000	6.52750800000000	0.37434000000000	0.00000000000000	-0.07684100000000	0.00000000000000	29.51100200000000	0.00000000000000	0.00000000000000	4.23091800000000	0.00000000000000	
5.94997300000000	-45.25841200000000	803.67398200000002	55.80895700000000	0.16605100000000	0.00000000000000	0.11270200000000	-9.44860200000000	55.65929900000000	7.23818700000000	0.37791000000000	0.00000000000000	-0.07720200000000	0.00000000000000	29.44124600000000	0.00000000000000	0.00000000000000	4.74666200000000	0.00000000000000	
5.95163700000000	-45.68702200000000	802.34965699999998	55.75246100000000	0.16529600000000	0.00000000000000	0.11258700000000	-10.06586900000000	62.54487100000000	7.87958100000000	0.38107900000000	0.00000000000000	-0.07754800000000	0.00000000000000	29.36723500000000	0.00000000000000	0.00000000000000	5.22672000000000	0.00000000000000	
5.95330500000000	-46.13036000000000	800.90127900000005	55.67512000000000	0.16453300000000	0.00000000000000	0.11247000000000	-10.53115800000000	69.28236900000000	8.44085700000000	0.38391600000000	0.00000000000000	-0.07787900000000	0.00000000000000	29.28901900000000	0.00000000000000	0.00000000000000	5.66323100000000	0.00000000000000	
5.95497400000000	-46.58880400000000	799.32567700000004	55.57619000000000	0.16376500000000	0.00000000000000	0.11235000000000	-10.83854600000000	75.82656100000000	8.91602400000000	0.38647600000000	0.00000000000000	-0.07819700000000	0.00000000000000	29.20665300000000	0.00000000000000	0.00000000000000	6.05140800000000	0.00000000000000	
5.95664300000000	-47.06265000000000	797.61965799999996	55.45495900000000	0.16299000000000	0.00000000000000	0.11222700000000	-10.98917500000000	82.15824000000001	9.30364100000000	0.38880400000000	0.00000000000000	-0.07850400000000	0.00000000000000	29.12019000000000	0.00000000000000	0.00000000000000	6.38941400000000	0.00000000000000	
5.95830600000000	-47.55211200000000	795.78001900000004	55.31075100000000	0.16221100000000	0.00000000000000	0.11210200000000	-10.99013900000000	88.28165300000001	9.60620500000000	0.39093900000000	0.00000000000000	-0.07880000000000	0.00000000000000	29.02968800000000	0.00000000000000	0.00000000000000	6.67800700000000	0.00000000000000	
5.95997500000000	-48.05731200000000	793.80354899999998	55.14292700000000	0.16142800000000	0.00000000000000	0.11197400000000	-10.85308400000000	94.22044600000000	9.82931700000000	0.39291300000000	0.00000000000000	-0.07908600000000	0.00000000000000	28.93520200000000	0.00000000000000	0.00000000000000	6.92004400000000	0.00000000000000	
5.96163900000000	-48.57828400000000	791.68704400000001	54.95089100000000	0.16064200000000	0.00000000000000	0.11184300000000	-10.59267200000000	100.01271400000000	9.98074100000000	0.39475100000000	0.00000000000000	-0.07936200000000	0.00000000000000	28.83678900000000	0.00000000000000	0.00000000000000	7.11988900000000	0.00000000000000	
5.96330300000000	-49.11496900000000	789.42731000000003	54.73409100000000	0.15985400000000	0.00000000000000	0.11170900000000	-10.22506500000000	105.70573899999999	10.06945000000000	0.39647800000000	0.00000000000000	-0.07963000000000	0.00000000000000	28.73450400000000	0.00000000000000	0.00000000000000	7.28281300000000	0.00000000000000	
5.96496900000000	-49.66721100000000	787.02117299999998	54.49202300000000	0.15906500000000	0.00000000000000	0.11157200000000	-9.76655700000000	111.35087200000000	10.10473800000000	0.39811100000000	0.00000000000000	-0.07989000000000	0.00000000000000	28.62839700000000	0.00000000000000	0.00000000000000	7.41442200000000	0.00000000000000	
5.96664000000000	-50.23475900000000	784.46549200000004	54.22423200000000	0.15827700000000	0.00000000000000	0.11143100000000	-9.23241900000000	116.99897700000000	10.09546300000000	0.39966700000000	0.00000000000000	-0.08014300000000	0.00000000000000	28.51851900000000	0.00000000000000	0.00000000000000	7.52015400000000	0.00000000000000	
5.96830200000000	-50.81726200000000	781.75716599999998	53.93031800000000	0.15749000000000	0.00000000000000	0.11128800000000	-8.63603000000000	122.69666100000001	10.04944800000000	0.40116000000000	0.00000000000000	-0.08038900000000	0.00000000000000	28.40491300000000	0.00000000000000	0.00000000000000	7.60488200000000	0.00000000000000	
5.96996900000000	-51.41426800000000	778.89314400000001	53.60993400000000	0.15670600000000	0.00000000000000	0.11114100000000	-7.98830400000000	128.48348300000001	9.97307300000000	0.40260100000000	0.00000000000000	-0.08062800000000	0.00000000000000	28.28762100000000	0.00000000000000	0.00000000000000	7.67263000000000	0.00000000000000	
5.97163500000000	-52.02522500000000	775.87043900000003	53.26279200000000	0.15592600000000	0.00000000000000	0.11099100000000	-7.29740300000000	134.39014599999999	9.87103900000000	0.40399900000000	0.00000000000000	-0.08086000000000	0.00000000000000	28.16667500000000	0.00000000000000	0.00000000000000	7.72639500000000	0.00000000000000	
5.97330500000000	-52.64948100000000	772.68613300000004	52.88866200000000	0.15515200000000	0.00000000000000	0.11083700000000	-6.56870900000000	140.43766400000001	9.74631000000000	0.40536300000000	0.00000000000000	-0.08108700000000	0.00000000000000	28.04210400000000	0.00000000000000	0.00000000000000	7.76809000000000	0.00000000000000	
5.97498500000000	-53.28628000000000	769.33739400000002	52.48737800000000	0.15438400000000	0.00000000000000	0.11068000000000	-5.80501500000000	146.63736399999999	9.60019100000000	0.40669900000000	0.00000000000000	-0.08130900000000	0.00000000000000	27.91392600000000	0.00000000000000	0.00000000000000	7.79856900000000	0.00000000000000	
5.97664400000000	-53.93476300000000	765.82148199999995	52.05883300000000	0.15362400000000	0.00000000000000	0.11051900000000	-5.00687300000000	152.99160000000001	9.43251500000000	0.40801300000000	0.00000000000000	-0.08152500000000	0.00000000000000	27.78215200000000	0.00000000000000	0.00000000000000	7.81773000000000	0.00000000000000	
5.97830300000000	-54.59397400000000	762.13576300000000	51.60298900000000	0.15287300000000	0.00000000000000	0.11035500000000	-4.17305000000000	159.49495999999999	9.24191400000000	0.40931000000000	0.00000000000000	-0.08173600000000	0.00000000000000	27.64678600000000	0.00000000000000	0.00000000000000	7.82467300000000	0.00000000000000	
5.97997100000000	-55.26285200000000	758.27771900000005	51.11987000000000	0.15213300000000	0.00000000000000	0.11018700000000	-3.30103800000000	166.13582099999999	9.02612500000000	0.41059200000000	0.00000000000000	-0.08194200000000	0.00000000000000	27.50781900000000	0.00000000000000	0.00000000000000	7.81788300000000	0.00000000000000	
5.98164000000000	-55.94023900000000	754.24495899999999	50.60956800000000	0.15140400000000	0.00000000000000	0.11001400000000	-2.38756600000000	172.89804000000001	8.78231200000000	0.41186200000000	0.00000000000000	-0.08214400000000	0.00000000000000	27.36523200000000	0.00000000000000	0.00000000000000	7.79542800000000	0.00000000000000	
5.98330200000000	-56.62487800000000	750.03522999999996	50.07224300000000	0.15068800000000	0.00000000000000	0.10983900000000	-1.42908100000000	179.76265900000001	8.50737400000000	0.41312300000000	0.00000000000000	-0.08234200000000	0.00000000000000	27.21899800000000	0.00000000000000	0.00000000000000	7.75516000000000	0.00000000000000	
5.98497600000000	-57.31541700000000	745.64642900000001	49.50812200000000	0.14998600000000	0.00000000000000	0.10965900000000	-0.42216700000000	186.70947500000000	8.19821900000000	0.41437500000000	0.00000000000000	-0.08253600000000	0.00000000000000	27.06907500000000	0.00000000000000	0.00000000000000	7.69488500000000	0.00000000000000	
5.98663600000000	-58.01040700000000	741.07661599999994	48.91749900000000	0.14929900000000	0.00000000000000	0.10947500000000	0.63612000000000	193.71839800000001	7.85198900000000	0.41562000000000	0.00000000000000	-0.08272600000000	0.00000000000000	26.91541300000000	0.00000000000000	0.00000000000000	7.61251300000000	0.00000000000000	
5.98830900000000	-58.70831300000000	736.32402100000002	48.30073800000000	0.14862700000000	0.00000000000000	0.10928700000000	1.74800700000000	200.77053699999999	7.46623600000000	0.41685700000000	0.00000000000000	-0.08291300000000	0.00000000000000	26.75794700000000	0.00000000000000	0.00000000000000	7.50617900000000	0.00000000000000	
5.98997500000000	-59.40750800000000	731.38705800000002	47.65827000000000	0.14797300000000	0.00000000000000	0.10909500000000	2.91485100000000	207.84898500000000	7.03903400000000	0.41808700000000	0.00000000000000	-0.08309700000000	0.00000000000000	26.59660200000000	0.00000000000000	0.00000000000000	7.37431800000000	0.00000000000000	
5.99163800000000	-60.10628200000000	726.26433799999995	46.99059000000000	0.14733700000000	0.00000000000000	0.10890000000000	4.13706800000000	214.93930900000001	6.56904200000000	0.41930800000000	0.00000000000000	-0.08327800000000	0.00000000000000	26.43129100000000	0.00000000000000	0.00000000000000	7.21572000000000	0.00000000000000	
5.99330900000000	-60.80284400000000	720.95468000000005	46.29826400000000	0.14671900000000	0.00000000000000	0.10870000000000	5.41413600000000	222.02976600000000	6.05552200000000	0.42052100000000	0.00000000000000	-0.08345600000000	0.00000000000000	26.26191700000000	0.00000000000000	0.00000000000000	7.02954400000000	0.00000000000000	
5.99497100000000	-61.49532700000000	715.45712300000002	45.58191900000000	0.14612000000000	0.00000000000000	0.10849600000000	6.74466600000000	229.11128199999999	5.49830800000000	0.42172200000000	0.00000000000000	-0.08363100000000	0.00000000000000	26.08836700000000	0.00000000000000	0.00000000000000	6.81531000000000	0.00000000000000	
5.99664300000000	-62.18179100000000	709.77093700000000	44.84224700000000	0.14554100000000	0.00000000000000	0.10828900000000	8.12650000000000	236.17725600000000	4.89775200000000	0.42291100000000	0.00000000000000	-0.08380400000000	0.00000000000000	25.91052300000000	0.00000000000000	0.00000000000000	6.57287400000000	0.00000000000000	
5.99830700000000	-62.86022900000000	703.89563799999996	44.08000300000000	0.14498200000000	0.00000000000000	0.10807700000000	9.55685200000000	243.22322100000000	4.25465500000000	0.42408600000000	0.00000000000000	-0.08397500000000	0.00000000000000	25.72825200000000	0.00000000000000	0.00000000000000	6.30238100000000	0.00000000000000	
5.99997200000000	-63.52857200000000	697.83099900000002	43.29600000000000	0.14444500000000	0.00000000000000	0.10786100000000	11.03244800000000	250.24643399999999	3.57017500000000	0.42524500000000	0.00000000000000	-0.08414300000000	0.00000000000000	25.54141400000000	0.00000000000000	0.00000000000000	6.00422500000000	0.00000000000000	
6.00163800000000	-64.18469500000000	691.57705999999996	42.49110900000000	0.14392800000000	0.00000000000000	0.10764200000000	12.54967600000000	257.24543599999998	2.84574700000000	0.42638500000000	0.00000000000000	-0.08431000000000	0.00000000000000	25.34985800000000	0.00000000000000	0.00000000000000	5.67899000000000	0.00000000000000	
6.00330800000000	-64.82642000000000	685.13414499999999	41.66625900000000	0.14343200000000	0.00000000000000	0.10741800000000	14.10471400000000	264.21961399999998	2.08299400000000	0.42750400000000	0.00000000000000	-0.08447500000000	0.00000000000000	25.15342600000000	0.00000000000000	0.00000000000000	5.32740100000000	0.00000000000000	
6.00497500000000	-65.45152600000000	678.50286500000004	40.82243000000000	0.14295800000000	0.00000000000000	0.10719100000000	15.69365200000000	271.16881599999999	1.28366100000000	0.42859900000000	0.00000000000000	-0.08463900000000	0.00000000000000	24.95195100000000	0.00000000000000	0.00000000000000	4.95028400000000	0.00000000000000	
